<svg xmlns="http://www.w3.org/2000/svg" viewBox="0 0 1200 630" width="1200" height="630">
  <rect width="1200" height="630" fill="#1a1200"/>
  <g opacity="0.12" transform="translate(700,70) scale(1.05)"><path d="M100 30 L300 30 L300 210 Q300 310 200 330 Q100 310 100 210 Z" fill="#FFFFFF"/><rect x="180" y="330" width="40" height="80" fill="#FFFFFF"/><rect x="120" y="400" width="160" height="35" rx="7" fill="#FFFFFF"/><path d="M30 55 Q30 160 100 178 L100 55 Z" fill="#FFFFFF" opacity="0.75"/><path d="M370 55 Q370 160 300 178 L300 55 Z" fill="#FFFFFF" opacity="0.75"/></g>
  <rect x="0" y="0" width="10" height="630" fill="#D4AF37"/>
  <rect x="0" y="600" width="1200" height="30" fill="#D4AF37" opacity="0.85"/>
  <rect x="80" y="58" width="83" height="36" rx="3" fill="#D4AF37"/>
  <text x="94" y="82" font-family="Arial,sans-serif" font-size="13" font-weight="700" fill="#FFFFFF" letter-spacing="2">MUSIC</text>
  <text x="1118" y="48" font-family="Arial,sans-serif" font-size="13" font-weight="700" fill="#D4AF37" letter-spacing="3" text-anchor="end" opacity="0.9">WAJ MAGAZINE</text>
  <text x="80" y="316" font-family="Georgia,serif" font-size="64" font-weight="700" font-style="italic" fill="#FFFFFF" letter-spacing="-1">American Music</text>
  <text x="80" y="388" font-family="Georgia,serif" font-size="64" font-weight="700" font-style="italic" fill="#FFFFFF" letter-spacing="-1">Honors 2026</text>
  <text x="80" y="468" font-family="Arial,sans-serif" font-size="19" fill="#FFFFFF" opacity="0.65">Dr. Dre · Dionne Warwick · Patti Smith · NJ</text>
  <text x="80" y="620" font-family="Arial,sans-serif" font-size="12" font-weight="700" fill="#FFFFFF" letter-spacing="3" opacity="0.8">WAJMAGAZINE.COM</text>
</svg>