<svg xmlns="http://www.w3.org/2000/svg" viewBox="0 0 1200 630" width="1200" height="630">
  <rect width="1200" height="630" fill="#0A1628"/>
  <g opacity="0.12" transform="translate(700,70) scale(1.05)"><path d="M150 50 L150 250 Q115 235 75 250 Q20 275 20 325 Q20 385 85 385 Q150 385 150 330 L150 160 L330 125 L330 240 Q295 225 255 240 Q200 265 200 310 Q200 370 265 370 Q325 370 330 320 L330 50 Z" fill="#FFFFFF"/></g>
  <rect x="0" y="0" width="10" height="630" fill="#FFD700"/>
  <rect x="0" y="600" width="1200" height="30" fill="#FFD700" opacity="0.85"/>
  <rect x="80" y="58" width="83" height="36" rx="3" fill="#FFD700"/>
  <text x="94" y="82" font-family="Arial,sans-serif" font-size="13" font-weight="700" fill="#FFFFFF" letter-spacing="2">MUSIC</text>
  <text x="1118" y="48" font-family="Arial,sans-serif" font-size="13" font-weight="700" fill="#FFD700" letter-spacing="3" text-anchor="end" opacity="0.9">WAJ MAGAZINE</text>
  <text x="80" y="282" font-family="Georgia,serif" font-size="64" font-weight="700" font-style="italic" fill="#FFFFFF" letter-spacing="-1">Newark's</text>
  <text x="80" y="354" font-family="Georgia,serif" font-size="64" font-weight="700" font-style="italic" fill="#FFFFFF" letter-spacing="-1">Lincoln Park</text>
  <text x="80" y="426" font-family="Georgia,serif" font-size="64" font-weight="700" font-style="italic" fill="#FFFFFF" letter-spacing="-1">Music Festival</text>
  <text x="80" y="506" font-family="Arial,sans-serif" font-size="19" fill="#FFFFFF" opacity="0.65">Free outdoor · House, Hip-Hop, Gospel & More</text>
  <text x="80" y="620" font-family="Arial,sans-serif" font-size="12" font-weight="700" fill="#FFFFFF" letter-spacing="3" opacity="0.8">WAJMAGAZINE.COM</text>
</svg>